<svg version="1.1" xmlns="http://www.w3.org/2000/svg" style="display: block;" viewBox="0 0 2048 2048" width="1024" height="1024" preserveAspectRatio="none">
<defs>
	<linearGradient id="Gradient1" gradientUnits="userSpaceOnUse" x1="1089.75" y1="466.007" x2="787.456" y2="1247.25">
		<stop class="stop0" offset="0" stop-opacity="1" stop-color="rgb(255,147,15)"/>
		<stop class="stop1" offset="1" stop-opacity="1" stop-color="rgb(255,85,28)"/>
	</linearGradient>
</defs>
<path transform="translate(0,0)" fill="url(#Gradient1)" d="M 536.924 539.421 C 583.149 538.042 636.899 539.432 683.64 539.454 L 970.469 539.38 L 1134.43 539.366 C 1230.33 539.225 1323.82 532.853 1402.62 598.646 C 1464.15 650.019 1461.06 717.417 1460.01 790.458 C 1459.52 824.464 1462.83 861.335 1455.61 894.785 C 1434.1 970.979 1336.97 995.222 1268.59 1006.78 C 1254.4 1009.19 1239.71 1011.57 1226.18 1012.49 C 1239.47 1026.82 1261.41 1057.22 1273.78 1073.63 C 1245.85 1121.86 1217.51 1169.85 1188.77 1217.6 C 1182.36 1228.17 1162.74 1262.68 1156.63 1269.84 L 1154.31 1269.9 C 1148.14 1266.6 1106.44 1204.72 1098.71 1193.8 C 1057.22 1134.28 1015.36 1075.01 973.119 1016.01 C 952.622 1015.7 931.218 1015.97 910.663 1015.97 L 880.072 1016.05 C 879.995 1035.2 880.021 1054.36 880.15 1073.51 C 871.822 1079.14 859.148 1085.61 850.077 1090.61 L 797.861 1119.45 C 749.493 1146.18 700.565 1174.14 652 1200.28 C 652.998 1165.13 652.17 1125.55 652.165 1090.16 L 652.136 881.927 C 652.135 850.637 651.49 816.382 652.476 785.358 C 727.624 785.22 804.89 786.413 879.756 784.934 C 880.21 813.806 880.006 843.216 880.076 872.129 L 1069.29 872.178 C 1100.32 872.179 1131.3 873.274 1162.5 870.765 C 1197.06 867.986 1224.37 846.161 1225.09 809.799 C 1225.21 788.685 1228.1 761.396 1212.03 744.979 C 1190.65 723.142 1145.46 728.657 1116.99 728.661 L 1004.89 728.702 L 615.158 728.398 C 593.317 685.048 574.505 637.969 552.897 594.271 C 544.898 578.095 534.723 557.156 528.507 540.708 C 531.321 539.219 533.478 539.592 536.924 539.421 z"/>
<path transform="translate(0,0)" fill="rgb(254,66,30)" d="M 1242.55 1210.09 C 1244.58 1207.95 1257.6 1185.56 1259.68 1182.03 L 1306.07 1103.3 C 1313.97 1089.91 1321.69 1076.27 1330.1 1063.2 C 1335.58 1054.7 1344.19 1049.6 1354.41 1052.14 C 1363.98 1054.51 1369.43 1065.65 1374.12 1073.42 C 1384.73 1093.03 1397.84 1113.77 1409.38 1133.12 C 1424.21 1158.35 1439.17 1183.51 1454.25 1208.59 L 1458.02 1215 L 1487.71 1265.03 C 1491.32 1272.67 1493.45 1278.2 1490.64 1287.08 C 1489.51 1290.66 1485.62 1294.11 1482.35 1295.32 C 1479.58 1296.35 1468.94 1297.31 1466.42 1297.23 C 1438.97 1296.39 1226.83 1299.93 1215.01 1295.64 C 1200.23 1283.9 1205.6 1272.84 1213.99 1258.61 C 1223.47 1242.53 1233.82 1226.6 1242.55 1210.09 z"/>
<path transform="translate(0,0)" fill="rgb(254,254,255)" d="M 1335.47 1124.31 C 1345.18 1123.87 1356.03 1124.13 1365.83 1124.16 C 1365.87 1153.23 1366.49 1184.83 1365.55 1213.7 L 1335.77 1213.88 L 1335.47 1124.31 z"/>
<path transform="translate(0,0)" fill="rgb(254,254,255)" d="M 1349.82 1226.8 C 1361.25 1226.52 1370.72 1235.61 1370.91 1247.04 C 1371.1 1258.47 1361.93 1267.86 1350.5 1267.96 C 1339.2 1268.05 1329.93 1259.01 1329.75 1247.71 C 1329.56 1236.41 1338.53 1227.08 1349.82 1226.8 z"/>
<path transform="translate(0,0)" fill="rgb(254,66,30)" d="M 1194.25 1341.99 C 1293.88 1342.21 1394.54 1340.92 1494.07 1342.18 C 1497.13 1345.5 1499.46 1349.26 1501.99 1353 C 1502.96 1354.37 1509.4 1363.61 1510.05 1364.26 C 1517.72 1375.47 1525.45 1386.64 1533.23 1397.77 C 1503.91 1399.42 1460.69 1398.08 1430.59 1398.08 L 1232.79 1398 C 1224.66 1388.38 1211.3 1367.28 1202.74 1355.53 L 1194.25 1341.99 z"/>
<path transform="translate(0,0)" fill="rgb(254,156,12)" d="M 515.599 1290.37 C 594.571 1291.94 678.215 1288.23 756.567 1290.73 C 757.045 1305.33 756.829 1321.02 756.878 1335.7 C 754.812 1337.71 736.032 1337.02 732.278 1337.02 L 683.305 1337.01 L 513.936 1336.88 C 514.188 1324.71 513.506 1304.67 514.136 1291.98 C 514.624 1291.45 515.111 1290.91 515.599 1290.37 z"/>
<path transform="translate(0,0)" fill="rgb(79,79,80)" fill-opacity="0.0117647" d="M 1744.98 1580.36 L 1746.69 1584.07 C 1750.33 1585.95 1754.76 1585.2 1759 1585 L 1759 1599 L 1743 1599 L 1743 1631 L 1727 1631 L 1727 1647 L 1711 1647 L 1711 1663 L 1693.5 1663 C 1690.1 1663.09 1684.97 1663.33 1682.22 1661.35 C 1696.24 1651.32 1713.34 1633.31 1723.16 1619.22 C 1728.57 1611.46 1741.97 1588.59 1744.98 1580.36 z"/>
<path transform="translate(0,0)" fill="rgb(79,79,80)" fill-opacity="0.0196078" d="M 305 1631 C 304.885 1621.77 304.701 1612.7 305.071 1603.46 C 305.838 1602.88 306.599 1602.29 307.354 1601.7 L 307.559 1599.44 L 308.74 1598.8 C 313.133 1603.43 315.956 1613.3 321.432 1619.7 C 327.54 1626.85 351.011 1647.66 352.323 1654.16 C 353.518 1656.5 355.038 1657.25 357.18 1658.78 C 358.019 1660.57 358.969 1660.92 360.716 1662.34 C 359.333 1663.5 340.49 1663 337 1663 L 337 1647 L 321 1647 L 321 1631 L 305 1631 z M 347.407 1650.57 C 343.863 1646.66 342.394 1644.43 337.603 1642.17 L 336.487 1642.36 C 337.721 1645.97 343.584 1650.26 347.407 1650.57 z"/>
<path transform="translate(0,0)" fill="rgb(79,79,80)" fill-opacity="0.117647" d="M 336.487 1642.36 L 337.603 1642.17 C 342.394 1644.43 343.863 1646.66 347.407 1650.57 C 343.584 1650.26 337.721 1645.97 336.487 1642.36 z"/>
<path transform="translate(0,0)" fill="rgb(79,79,80)" fill-opacity="0.168627" d="M 352.323 1654.16 C 360.697 1656.47 367.801 1662.86 375.066 1665.7 C 382.669 1668.66 395.575 1671.53 403.804 1673.48 C 386.952 1674.49 371.503 1665.06 357.18 1658.78 C 355.038 1657.25 353.518 1656.5 352.323 1654.16 z"/>
<path transform="translate(0,0)" fill="rgb(79,79,80)" fill-opacity="0.282353" d="M 1660.42 326.822 C 1668.69 327.48 1686.49 335.038 1693.42 339.947 L 1693.52 341.786 C 1685.68 336.511 1669.7 330.494 1660.42 326.822 z"/>
<path transform="translate(0,0)" fill="rgb(79,79,80)" fill-opacity="0.333333" d="M 1727.07 374.474 C 1732.03 376.331 1736.02 387.471 1738.01 392.487 L 1736.52 392.259 C 1733.55 386.238 1730.4 380.307 1727.07 374.474 z"/>
<path transform="translate(0,0)" fill="rgb(79,79,80)" fill-opacity="0.117647" d="M 1739.25 397.322 C 1743.15 399.595 1745.08 410.388 1746.52 415.557 C 1742.97 412.885 1741.21 402.767 1739.25 397.322 z"/>
<path transform="translate(0,0)" fill="rgb(79,79,80)" fill-opacity="0.2" d="M 351.112 342.988 C 351.717 343.572 351.398 343.14 351.557 344.535 C 347.874 347.737 345.391 350.473 340.826 352.066 L 340.409 351.601 C 344.783 347.011 345.701 346.317 351.112 342.988 z"/>
<path transform="translate(0,0)" fill="rgb(79,79,80)" fill-opacity="0.0941176" d="M 300.974 415.38 C 303.655 419.043 300.655 428.009 299.69 432.377 C 298.087 428.475 300.166 420.051 300.974 415.38 z"/>
<path transform="translate(0,0)" fill="rgb(79,79,80)" fill-opacity="0.266667" d="M 335.198 355.868 L 335.958 356.697 C 334.582 360.005 330.668 363.315 327.946 366.095 L 327.32 364.653 C 330.094 360.011 331.012 359.379 335.198 355.868 z"/>
<path transform="translate(0,0)" fill="rgb(79,79,80)" fill-opacity="0.152941" d="M 373.174 330.697 L 374.661 331.205 C 372.157 333.724 365.922 336.195 362.437 337.811 L 361.314 337.557 C 362.406 335.409 370.288 332.146 373.174 330.697 z"/>
<path transform="translate(0,0)" fill="rgb(79,79,80)" fill-opacity="0.152941" d="M 1669.63 1665.95 C 1670.01 1666.19 1670.39 1666.44 1670.77 1666.68 C 1667.53 1669.07 1660.41 1670.87 1656.28 1672.15 L 1654.76 1671.8 C 1655.39 1670.91 1667.42 1666.81 1669.63 1665.95 z"/>
<path transform="translate(0,0)" fill="rgb(79,79,80)" fill-opacity="0.117647" d="M 303.857 1576.23 C 303.877 1576.48 303.897 1576.73 303.917 1576.99 C 302.043 1581.69 305.944 1584.81 304.35 1590.36 C 302.267 1585.21 298.548 1579.58 303.857 1576.23 z"/>
<path transform="translate(0,0)" fill="rgb(79,79,80)" fill-opacity="0.215686" d="M 1745.78 418.665 L 1747.07 419.044 C 1748.84 422.49 1748.63 427.178 1748.83 431.178 C 1746.47 428.63 1746.28 422.464 1745.78 418.665 z"/>
</svg>